Coordinates
version=1
nRows=10
nColumns=40
inDegrees=yes

Units are S.I. units (second, meters, Newtons, ...)
Angles are in degrees.

endheader
time	pelvis_tilt	pelvis_list	pelvis_rotation	pelvis_tx	pelvis_ty	pelvis_tz	hip_flexion_r	hip_adduction_r	hip_rotation_r	knee_angle_r	knee_angle_r_beta	ankle_angle_r	subtalar_angle_r	mtp_angle_r	hip_flexion_l	hip_adduction_l	hip_rotation_l	knee_angle_l	knee_angle_l_beta	ankle_angle_l	subtalar_angle_l	mtp_angle_l	lumbar_extension	lumbar_bending	lumbar_rotation	arm_flex_r	arm_add_r	arm_rot_r	elbow_flex_r	pro_sup_r	wrist_flex_r	wrist_dev_r	arm_flex_l	arm_add_l	arm_rot_l	elbow_flex_l	pro_sup_l	wrist_flex_l	wrist_dev_l
     21.55500000	     -4.43882484	     -4.58213901	      9.52822829	      0.91507130	      0.92437218	      0.40224759	      3.21176481	      2.20865028	    -18.45592044	     12.73104177	     12.73104177	     15.37095394	      1.28307572	     -3.55972861	     29.02770502	     -7.78268756	     -1.47476005	     23.12965515	     23.12965515	      7.35342311	     -9.56892214	      8.77333277	    -10.10465795	      6.68999722	      6.10727367	     30.08313303	    -18.63808620	     -7.59006697	     71.30359553	     44.90207542	      0.00000000	      0.00000000	     -2.60400921	     -8.11690428	    -17.81709317	     29.05477511	     47.47054534	      0.00000000	      0.00000000
     21.56821429	     -4.51882000	     -4.75680502	      9.41317522	      0.91513602	      0.92349225	      0.39991922	      2.99737075	      2.24381533	    -18.33380382	     12.87306550	     12.87306550	     15.61436536	      1.33862087	     -3.61248554	     28.74101771	     -7.80737323	     -1.63380080	     23.29070791	     23.29070791	      6.98409017	     -9.61631303	      8.76145955	     -9.95696776	      6.72360526	      6.06398428	     29.54261539	    -18.18327700	     -7.33494808	     71.09996036	     44.89885517	      0.00000000	      0.00000000	     -2.30714873	     -8.27640750	    -17.87232932	     29.37821400	     47.48098623	      0.00000000	      0.00000000
     21.58142857	     -4.59090910	     -4.86751060	      9.25856945	      0.91525401	      0.92266600	      0.39741737	      2.89337714	      2.13330792	    -18.29257471	     13.32441594	     13.32441594	     16.30800254	      1.64231503	     -2.63593424	     28.28202498	     -7.76002477	     -1.71504989	     23.10513162	     23.10513162	      5.59555124	    -10.11860888	      6.15783903	     -9.81758443	      6.65340573	      5.38786602	     29.81437906	    -17.73152688	     -5.51251724	     69.21836615	     44.93690808	      0.00000000	      0.00000000	     -3.26742357	     -8.29537904	    -18.74450932	     32.32672623	     47.50905709	      0.00000000	      0.00000000
     21.59464286	     -4.60639536	     -4.92808107	      9.13854588	      0.91538475	      0.92213645	      0.39466862	      2.63202578	      2.00654452	    -18.14295978	     13.54965703	     13.54965703	     16.48934424	      1.61115517	     -2.70197720	     27.99523647	     -7.69438761	     -1.74903611	     23.38574420	     23.38574420	      5.42033513	    -10.21495589	      6.12613954	     -9.77883046	      6.61192082	      5.40952628	     29.05550805	    -17.41296555	     -5.26245496	     68.76137393	     44.94188587	      0.00000000	      0.00000000	     -2.82500890	     -8.48726952	    -18.76494797	     32.53374565	     47.51476447	      0.00000000	      0.00000000
     21.60785714	     -4.67335708	     -4.91599820	      8.97194438	      0.91534306	      0.92164698	      0.39176365	      2.62663674	      1.71040925	    -17.91973964	     14.17483116	     14.17483116	     16.73563602	      1.44926851	     -2.75664962	     27.78743790	     -7.54402553	     -1.72073320	     23.69457788	     23.69457788	      5.23778477	    -10.55577029	      5.91890291	     -9.66920770	      6.44027630	      5.73512882	     28.33185363	    -17.59098703	     -4.78607730	     67.43525377	     44.97317840	      0.00000000	      0.00000000	     -2.18293122	     -8.58504690	    -18.76161057	     32.98095547	     47.50927813	      0.00000000	      0.00000000
     21.62107143	     -4.70479719	     -4.89930028	      8.86683353	      0.91526266	      0.92141334	      0.38860905	      2.56921750	      1.40471744	    -17.72782926	     14.78026035	     14.78026035	     17.00095678	      1.34397102	     -2.68677252	     27.56349669	     -7.34429039	     -1.54474406	     23.97941574	     23.97941574	      5.07267114	    -11.09437263	      5.68909025	     -9.57126236	      6.33916942	      5.65052350	     27.79466371	    -17.43289371	     -3.88502667	     65.68219538	     45.00838261	      0.00000000	      0.00000000	     -1.66343781	     -8.70619027	    -18.64975759	     33.42549607	     47.47545207	      0.00000000	      0.00000000
     21.63428571	     -4.69465037	     -4.83428445	      8.74178508	      0.91512649	      0.92149445	      0.38514610	      2.45360686	      1.01220818	    -17.67987345	     15.35075472	     15.35075472	     17.16204238	      1.40313955	     -2.29438798	     27.31222906	     -7.08438008	     -1.32418334	     24.33156119	     24.33156119	      5.16130639	    -11.67001431	      5.54177092	     -9.59018843	      6.18730807	      5.00885689	     27.97681882	    -17.01569410	     -2.09242876	     62.91159763	     45.06668335	      0.00000000	      0.00000000	     -1.68618064	     -8.96576056	    -18.34094571	     34.14403522	     47.35833432	      0.00000000	      0.00000000
     21.64750000	     -4.64788167	     -4.75622855	      8.62682022	      0.91494983	      0.92173143	      0.38149208	      2.35085235	      0.58358098	    -17.55156699	     16.01268309	     16.01268309	     17.20183639	      1.34189651	     -2.39332991	     27.06244039	     -6.82820534	     -1.18618017	     24.75171734	     24.75171734	      5.44397752	    -12.10394710	      5.56059022	     -9.67748419	      6.06768736	      5.19575827	     26.98412730	    -17.07662609	     -1.71499309	     61.78254036	     45.09181052	      0.00000000	      0.00000000	     -0.98948818	     -9.01597504	    -18.28011691	     34.65087532	     47.34804951	      0.00000000	      0.00000000
     21.66071429	     -4.63969745	     -4.65030778	      8.51265486	      0.91476633	      0.92209433	      0.37758566	      2.30895317	      0.07830502	    -17.51228803	     16.72338117	     16.72338117	     17.20650412	      1.39115273	     -2.50465540	     26.80103540	     -6.49881131	     -1.03485608	     25.08336641	     25.08336641	      5.80857512	    -12.64479552	      5.84197541	     -9.67793606	      5.95167373	      5.31739775	     26.06396164	    -17.15518759	     -1.13634471	     60.08417365	     45.13065620	      0.00000000	      0.00000000	     -0.32499764	     -9.06653228	    -18.08339233	     35.16100789	     47.31569655	      0.00000000	      0.00000000
     21.67392857	     -4.51878146	     -4.63747310	      8.44551480	      0.91469968	      0.92275664	      0.37357548	      2.01872519	     -0.25025893	    -17.43600811	     17.14212809	     17.14212809	     17.05839027	      1.39027253	     -2.52857199	     26.42195916	     -6.30329623	     -0.95279284	     25.39527653	     25.39527653	      6.19804149	    -12.88903076	      5.76757592	     -9.81824326	      5.99849342	      5.06753191	     24.92133682	    -16.81926724	     -0.84477814	     59.36257479	     45.13972903	      0.00000000	      0.00000000	      0.17544613	     -9.14963928	    -18.02754453	     35.42963602	     47.31355996	      0.00000000	      0.00000000
